<?xml version="1.0" standalone="no"?>
<!DOCTYPE svg PUBLIC "-//W3C//DTD SVG 20010904//EN"
 "http://www.w3.org/TR/2001/REC-SVG-20010904/DTD/svg10.dtd">
<svg version="1.0" xmlns="http://www.w3.org/2000/svg"
 width="666.000000pt" height="375.000000pt" viewBox="0 0 666.000000 375.000000"
 preserveAspectRatio="xMidYMid meet">

<g transform="translate(0.000000,375.000000) scale(0.100000,-0.100000)"
fill="#000000" stroke="none">
<path d="M3310 2875 c-153 -43 -257 -157 -296 -322 -32 -134 4 -299 96 -453
28 -46 47 -87 43 -90 -5 -4 -39 -19 -78 -35 -281 -117 -379 -394 -238 -675 28
-55 60 -98 123 -161 129 -131 222 -166 405 -156 158 9 336 72 477 167 l59 41
82 -69 c145 -121 168 -136 203 -136 19 0 42 8 55 19 36 34 79 117 79 157 0 33
-6 41 -67 89 -38 29 -87 70 -109 92 l-41 39 37 56 c90 137 132 243 112 286
-18 41 -83 67 -155 64 l-62 -3 -47 -90 c-71 -133 -68 -132 -136 -60 -88 94
-242 274 -242 284 0 5 39 35 88 67 125 84 250 211 293 299 32 65 34 76 34 170
0 89 -3 106 -27 155 -53 107 -167 196 -317 247 -97 33 -284 42 -371 18z m20
-192 c0 -5 -10 -24 -22 -43 -74 -117 -81 -183 -40 -357 16 -68 25 -123 21
-123 -14 0 -57 64 -86 126 -25 52 -28 71 -28 164 0 99 2 108 29 150 15 25 42
56 60 68 30 22 66 29 66 15z m617 -80 c36 -24 56 -93 51 -172 -9 -126 -93
-249 -238 -349 -167 -116 -360 -210 -445 -218 -56 -5 -53 1 15 38 135 75 175
98 281 170 131 88 250 205 288 283 32 64 33 150 2 218 -11 27 -21 51 -21 54 0
7 42 -8 67 -24z m-307 -19 c77 -36 130 -85 130 -120 0 -76 -127 -206 -301
-307 l-47 -28 -42 53 c-98 122 -134 269 -88 358 34 67 71 82 188 78 81 -3 105
-8 160 -34z m-80 -693 c0 -13 -28 -22 -35 -11 -3 4 1 11 7 13 20 8 28 8 28 -2z
m-166 -141 c21 -27 101 -120 176 -207 108 -124 136 -161 127 -171 -17 -21
-155 -87 -220 -106 -82 -24 -174 -30 -226 -16 -86 23 -199 162 -216 266 -16
103 36 173 166 223 46 18 98 39 114 46 17 8 32 14 35 14 3 0 22 -22 44 -49z
m-343 -25 c-17 -21 -41 -125 -41 -178 0 -30 6 -73 14 -95 21 -59 31 -132 18
-132 -16 0 -70 82 -87 131 -17 49 -20 156 -4 196 19 51 58 93 84 91 15 -2 21
-6 16 -13z m1163 9 c25 -10 19 -53 -18 -129 -38 -80 -120 -183 -163 -205 -15
-8 -34 -21 -42 -28 -7 -7 -16 -11 -18 -8 -3 3 20 39 51 80 56 74 136 225 136
256 0 16 18 40 31 40 4 0 14 -3 23 -6z m74 -606 c3 -27 -23 -62 -39 -53 -14 9
-11 73 4 78 21 9 32 1 35 -25z"/>
<path d="M1428 2795 c-56 -18 -88 -55 -88 -101 0 -101 136 -836 210 -1139 82
-332 148 -437 294 -467 145 -31 266 53 332 229 54 143 165 638 235 1051 12 72
26 132 31 132 4 0 8 -210 9 -467 1 -258 4 -578 8 -711 l6 -244 27 -23 c37 -32
106 -41 171 -24 93 25 88 -14 81 709 -3 344 -9 703 -13 798 -8 218 -8 217
-142 217 -87 0 -92 -1 -115 -29 l-25 -28 -22 20 c-32 30 -75 44 -139 45 -61 0
-81 -10 -103 -52 -7 -14 -38 -168 -70 -341 -85 -474 -161 -821 -205 -935 l-12
-30 -13 31 c-47 111 -157 634 -235 1119 -26 158 -38 199 -64 224 -29 28 -99
35 -158 16z m151 -79 c6 -7 25 -96 42 -197 81 -497 161 -901 214 -1079 26 -91
31 -130 15 -130 -23 0 -66 103 -109 260 -63 232 -211 1020 -211 1123 0 30 4
37 19 37 10 0 24 -6 30 -14z m1115 -32 c14 -36 6 -659 -10 -794 -24 -207 -17
-677 12 -777 6 -20 3 -23 -25 -23 l-31 0 0 268 c0 147 -5 500 -10 786 -6 344
-6 525 1 537 12 23 55 25 63 3z m-284 -37 c0 -135 -207 -1133 -269 -1299 -26
-69 -56 -108 -82 -108 -24 0 -24 7 1 62 62 142 183 694 270 1242 11 71 23 133
26 137 3 5 16 9 30 9 22 0 24 -4 24 -43z"/>
<path d="M1093 2770 c-12 -5 -30 -21 -39 -35 -16 -25 -17 -79 -11 -816 7 -860
5 -834 64 -857 54 -20 86 -23 140 -12 44 10 58 18 74 43 20 31 20 45 14 697
-3 366 -8 725 -11 798 -6 120 -8 136 -29 160 -21 24 -30 27 -102 29 -43 2 -88
-1 -100 -7z m188 -87 c7 -34 14 -646 14 -1208 l0 -360 -25 0 -25 0 -6 335
c-10 561 -13 1245 -5 1259 14 21 40 7 47 -26z"/>
<path d="M4632 2720 c-17 -30 -32 -39 -32 -19 0 32 -157 52 -210 26 -14 -7
-33 -28 -42 -47 -15 -32 -16 -92 -8 -794 8 -728 9 -760 28 -785 25 -35 85 -54
145 -47 66 7 105 33 117 75 6 22 7 163 3 363 -4 236 -3 328 5 328 6 0 14 -4
17 -10 4 -6 132 -10 350 -10 339 0 344 0 355 21 28 51 23 224 -6 254 -23 23
-679 22 -704 0 -16 -14 -17 -1 -23 191 -4 114 -5 209 -3 211 2 3 13 0 24 -6
14 -7 151 -11 411 -11 378 0 392 1 411 20 15 15 20 34 21 73 2 106 -3 153 -17
175 l-14 22 -406 0 -405 0 -17 -30z m-60 -86 c-2 -23 2 -61 8 -85 15 -54 15
-488 0 -553 -7 -30 -6 -62 1 -98 11 -59 24 -705 14 -755 -5 -28 -10 -33 -34
-33 -38 0 -53 20 -45 59 4 18 1 360 -6 760 -7 401 -9 734 -5 741 4 6 21 10 38
8 31 -3 32 -5 29 -44z m908 -38 c0 -72 -11 -87 -42 -59 -17 15 -43 19 -167 23
l-146 5 149 5 c159 5 151 2 175 63 18 46 31 31 31 -37z m-125 -714 c-9 -9 -25
19 -25 45 0 12 6 34 12 50 12 27 13 25 16 -31 2 -32 0 -61 -3 -64z"/>
</g>
</svg>
